<svg id="Layer_1" xmlns="http://www.w3.org/2000/svg" viewBox="0 0 200 200"><style>.st0{fill:#37b34a}</style><path class="st0" d="M100 0C44.9 0 0 44.9 0 100s44.9 100 100 100 100-44.9 100-100S155.1 0 100 0zm0 1.7c54.2 0 98.3 44.1 98.3 98.3 0 23.7-8.4 45.5-22.4 62.5H141V120l1.5 2c1.3 1.8 3.9 2.2 5.7.9s2.2-3.9.9-5.7l-45.7-62.3c-.8-1.1-2-1.7-3.3-1.7s-2.5.6-3.3 1.7L75.6 83.7v-9.5h1.7v-1.7H57.8v1.7h1.3V106L51 117.1c-1.3 1.8-.9 4.4.9 5.7.7.5 1.6.8 2.4.8 1.3 0 2.5-.6 3.3-1.7l1.5-2v42.5h-35c-14-17-22.4-38.8-22.4-62.5C1.7 45.8 45.8 1.7 100 1.7zM75.5 130.9l10.7-14.6L97 131.1v25.4H75.4l.1-25.6zm-.8 27.2H101v4.4H71.7v-4.4h3zm27.1-1.7h-3v-23.1l2.8 3.9 1.4-1-16.1-21.9c-.3-.4-1-.4-1.4 0l-16.1 21.9 1.4 1 3-4v23.3h-3c-.5 0-.8.4-.8.8v5.2h-9.2v-44.8L100 64.2l39.3 53.4v44.8h-36.6v-5.2c-.1-.4-.5-.8-.9-.8zM73.8 86l-13.1 17.8V74.1h13.1V86zM98 55.8c.5-.6 1.2-1 2-1s1.5.4 2 1l45.7 62.3c.8 1.1.6 2.6-.5 3.4-1.1.8-2.6.6-3.4-.5l-43.1-58.7c-.3-.4-1-.4-1.4 0L56.2 121c-.8 1-2.4 1.3-3.4.5-1.1-.8-1.3-2.3-.5-3.4L98 55.8zm2 142.5c-29.7 0-56.4-13.3-74.4-34.2H174.4c-18 20.9-44.7 34.2-74.4 34.2z"/><path class="st0" d="M112.5 149.7h15.2c.5 0 .8-.4.8-.8v-28.7c0-.5-.4-.8-.8-.8h-15.2c-.5 0-.8.4-.8.8v28.7c-.1.4.3.8.8.8zm.8-9.5h5.9v7.8h-5.9v-7.8zm5.9-1.7h-5.9v-7.9h5.9v7.9zm1.7-7.9h5.9v7.9h-5.9v-7.9zm0 17.4v-7.8h5.9v7.8h-5.9zm6-19.1H121V121h5.9v7.9zm-7.7-7.9v7.8h-5.9V121h5.9zM108.5 102.9V87c0-.5-.4-.8-.8-.8H92.5c-.5 0-.8.4-.8.8v15.9c0 .5.4.8.8.8h15.2c.4.1.8-.3.8-.8zm-1.7-8.7h-5.9v-6.3h5.9v6.3zm-7.6-6.3v6.3h-5.9v-6.3h5.9zm-6 7.9h5.9v6.3h-5.9v-6.3zm7.6 6.3v-6.3h5.9v6.3h-5.9zM80.3 140.1c-1.6 0-2.8 1.3-2.8 2.8 0 1.6 1.3 2.8 2.8 2.8 1.6 0 2.8-1.3 2.8-2.8.1-1.5-1.2-2.8-2.8-2.8zm0 4c-.6 0-1.2-.5-1.2-1.2 0-.6.5-1.2 1.2-1.2.6 0 1.2.5 1.2 1.2s-.5 1.2-1.2 1.2zM61.3 60.6c2 1.6 4.1 3.2 4.5 6 0 .2.1.4.3.6.1.1.3.2.5.2h.1c.3 0 7.8-1 9.8-5.3.9-1.9.5-4.1-1.1-6.5-3.9-5.8-2.5-7.3.6-10.7.7-.7 1.5-1.6 2.3-2.6 3.4-4.1 3.6-9.2.7-13.4-3-4.4-8.4-6.5-12.7-5.1-3.2 1-5.4 3.5-6.2 6.9-1.1 4.3.2 9.2 3.1 12.3.7.8 1.1 1.4 1 1.9-.1.8-1 1.5-2.2 2.4-1.7 1.3-3.9 3-4.6 5.9-.9 3.6 1.5 5.5 3.9 7.4zm-2.3-7c.6-2.3 2.4-3.8 4-5 1.4-1.1 2.7-2.1 2.8-3.6.1-1-.4-2-1.5-3.1-2.5-2.7-3.6-7.1-2.7-10.7.7-2.8 2.5-4.8 5.1-5.7.7-.2 1.5-.3 2.3-.3 3.1 0 6.5 1.8 8.6 4.8 1.2 1.7 3.6 6.4-.6 11.4-.8.9-1.5 1.7-2.2 2.5-3.2 3.4-5.4 5.8-.8 12.7 1.3 1.9 1.6 3.5 1 4.9-1.1 2.5-5.4 3.7-7.6 4.2-.7-3-3-4.7-5-6.3-2.5-2.1-4-3.4-3.4-5.8z"/></svg>