<svg id="Layer_1" xmlns="http://www.w3.org/2000/svg" viewBox="0 0 200 200"><style>.st0{fill:#37b34a}</style><path class="st0" d="M100 0C44.9 0 0 44.9 0 100s44.9 100 100 100 100-44.9 100-100S155.1 0 100 0zm0 198.3c-54.2 0-98.3-44.1-98.3-98.3S45.8 1.7 100 1.7s98.3 44.1 98.3 98.3-44.1 98.3-98.3 98.3z"/><path class="st0" d="M139.7 74.9c-8.1 0-14.7 6.6-14.7 14.7 0 7.7 6 14.1 13.6 14.7v47.2c0 5.2-4.2 9.4-9.4 9.4s-9.4-4.2-9.4-9.4v-18.9c0-6.5-5.3-11.8-11.8-11.8s-11.8 5.3-11.8 11.8v18.9c0 5.2-4.2 9.4-9.4 9.4s-9.4-4.2-9.4-9.4v-36c6.5-.3 12.5-2.8 17.3-7.2 5.4-5.1 8.5-12.3 8.5-19.7V52.4c0-4.4-3.3-8-7.6-8.5v-2.7c0-.6-.5-1.2-1.2-1.2-.6 0-1.2.5-1.2 1.2v7.5c0 .6.5 1.2 1.2 1.2.6 0 1.2-.5 1.2-1.2v-2.5c3 .5 5.3 3.1 5.3 6.2v36.1c0 6.9-2.8 13.3-7.8 18s-11.6 7.1-18.5 6.6c-12.9-.8-23-12-23-25.5V52.4c0-3.1 2.3-5.7 5.3-6.2v2.5c0 .6.5 1.2 1.2 1.2s1.2-.5 1.2-1.2v-7.5c0-.6-.5-1.2-1.2-1.2s-1.2.5-1.2 1.2v2.7c-4.6.5-7.9 4.1-7.9 8.5v35.2c0 14.7 11.1 26.9 25.2 27.8h.6v36c0 6.5 5.3 11.8 11.8 11.8s11.8-5.3 11.8-11.8v-18.9c0-5.2 4.2-9.4 9.4-9.4s9.4 4.2 9.4 9.4v18.9c0 6.5 5.3 11.8 11.8 11.8s11.8-5.3 11.8-11.8v-47.2c7.6-.6 13.6-6.9 13.6-14.7 0-8-6.6-14.6-14.7-14.6zm0 27.1c-6.8 0-12.4-5.6-12.4-12.4s5.6-12.4 12.4-12.4c6.8 0 12.4 5.6 12.4 12.4-.1 6.8-5.6 12.4-12.4 12.4z"/><path class="st0" d="M139.7 86.3c-1.8 0-3.3 1.5-3.3 3.3s1.5 3.3 3.3 3.3 3.3-1.5 3.3-3.3-1.5-3.3-3.3-3.3z"/></svg>