<svg xmlns="http://www.w3.org/2000/svg" viewBox="0 0 200 200"><path d="M100 0C44.9 0 0 44.9 0 100s44.9 100 100 100 100-44.9 100-100S155.1 0 100 0zm0 44.3c5.9 21.5 7.5 37.4 0 81-7.5-43-5.8-59.6 0-81zm-5.3 83.9c-2.9-2.9-6.8-7.2-11.4-13.6-8.4-11.6-10.2-24.2-10.7-29.1C87.1 99.7 96 115.2 99 131.7c-1.5-1.3-2.9-2.4-4.3-3.5zm2.9 6.5c-6.6 5.1-15.1 9.9-28.2 9.9h-.3c1.3-1.5 4-4.1 9.4-6.6 6.1-2.8 15-3.3 19.1-3.3zm-.6-2.2c-4.9-.8-14.5-2.8-23-6.4-8.2-3.5-12.4-7.6-14.3-9.9 18.6 3.8 25 6.3 33.8 13.1 1.3 1.4 2.5 2.4 3.5 3.2zm8.8-4.3c-1.4 1.1-2.8 2.2-4.3 3.5 3-16.5 11.9-32 26.4-46.2-.4 4.9-2.3 17.4-10.7 29.1-4.6 6.4-8.5 10.7-11.4 13.6zm1.3 1.1c8.8-6.8 15.1-9.3 33.8-13.1-1.9 2.2-6.2 6.4-14.3 9.9-8.5 3.7-18 5.6-23 6.4.9-.8 2.1-1.8 3.5-3.2zm14.4 8.7c5.3 2.5 8.1 5.1 9.4 6.6h-.3c-13.1 0-21.6-4.7-28.2-9.9 4.1 0 13 .5 19.1 3.3zm-20.7 60.3v-62.7c6.9 5.4 15.8 10.6 29.7 10.6h2c.3 0 .6-.2.7-.4.1-.3.2-.6 0-.8-.1-.2-2.5-4.5-11-8.5-4.1-1.9-9.4-2.8-13.8-3.2 5.3-1.1 12.3-2.9 18.8-5.7 12.4-5.4 16.2-12 16.4-12.3s.1-.6-.1-.9c-.2-.3-.5-.4-.8-.3-15.7 3.1-23.1 5.2-30.4 9.5 1.9-2.2 4-4.9 6.3-8.1 11-15.2 11.1-31.5 11.1-32.1 0-.3-.2-.6-.5-.8-.3-.1-.7-.1-.9.2-12.7 12-21.4 25-25.9 38.8 6.7-40.4 5.4-56.4-1.5-80.7-.2-.7-1.4-.7-1.6 0-6.7 23.7-8.2 40.2-2 77.9-4.7-12.7-13.1-24.8-24.9-36-.2-.2-.6-.3-.9-.2-.3.1-.5.4-.5.8 0 .7.1 17 11.1 32.1 2.3 3.2 4.4 5.8 6.3 8.1-7.2-4.4-14.7-6.4-30.4-9.5-.3-.1-.7.1-.8.3-.2.3-.2.6-.1.9.2.3 3.9 6.9 16.4 12.3 6.4 2.8 13.4 4.6 18.6 5.6-4.4.4-9.9 1.2-14.1 3.2-8.6 4-10.9 8.3-11 8.5-.1.3-.1.6 0 .8.1.3.4.4.7.4h2c13.9 0 22.8-5.2 29.7-10.6v62.7c-53.8-.5-97.5-44.4-97.5-98.3C1.9 45.7 46 1.6 100.2 1.6s98.3 44.1 98.3 98.3c-.2 54-43.8 97.9-97.7 98.4z" fill="#37b34a"/></svg>