<?xml version="1.0" encoding="utf-8"?>
<!-- Generator: Adobe Illustrator 22.1.0, SVG Export Plug-In . SVG Version: 6.00 Build 0)  -->
<svg version="1.1" id="Layer_1" xmlns="http://www.w3.org/2000/svg" xmlns:xlink="http://www.w3.org/1999/xlink" x="0px" y="0px"
	 viewBox="0 0 250 250" style="enable-background:new 0 0 250 250;" xml:space="preserve">
<style type="text/css">
	.st0{fill:#37B34A;}
</style>
<g>
	<path class="st0" d="M125,25C69.9,25,25,69.9,25,125s44.9,100,100,100s100-44.9,100-100S180.1,25,125,25z M125,26.7
		c54.2,0,98.3,44.1,98.3,98.3c0,23.7-8.4,45.5-22.4,62.5h-34.9v-42.5l1.5,2c1.3,1.8,3.9,2.2,5.7,0.9c1.8-1.3,2.2-3.9,0.9-5.7
		l-45.7-62.3c-0.8-1.1-2-1.7-3.3-1.7s-2.5,0.6-3.3,1.7l-21.2,28.8v-9.5h1.7v-1.7h-2.5H84.9h-2.1v1.7h1.3V131h0L76,142.1
		c-1.3,1.8-0.9,4.4,0.9,5.7c0.7,0.5,1.6,0.8,2.4,0.8c1.3,0,2.5-0.6,3.3-1.7l1.5-2v42.5H49.1c-14-17-22.4-38.8-22.4-62.5
		C26.7,70.8,70.8,26.7,125,26.7z M100.5,155.9l10.7-14.6l10.8,14.8v25.4h-21.6V155.9z M99.7,183.1h23.3h3v4.4H96.7v-4.4H99.7z
		 M126.8,181.4h-3v-23.1l2.8,3.9l1.4-1l-16.1-21.9c-0.3-0.4-1-0.4-1.4,0l-16.1,21.9l1.4,1l3-4v23.3h-3c-0.5,0-0.8,0.4-0.8,0.8v5.2
		h-9.2v-44.8L125,89.2l39.3,53.4v44.8h-36.6v-5.2C127.6,181.8,127.2,181.4,126.8,181.4z M98.8,111l-13.1,17.8V99.1h13.1V111z
		 M123,80.8c0.5-0.6,1.2-1,2-1s1.5,0.4,2,1l45.7,62.3c0.8,1.1,0.6,2.6-0.5,3.4c-1.1,0.8-2.6,0.6-3.4-0.5l-43.1-58.7
		c-0.3-0.4-1-0.4-1.4,0L81.2,146c-0.8,1-2.4,1.3-3.4,0.5c-1.1-0.8-1.3-2.3-0.5-3.4L123,80.8z M125,223.3
		c-29.7,0-56.4-13.3-74.4-34.2h34.3h10.9h31h38.3h34.3C181.4,210,154.7,223.3,125,223.3z"/>
	<path class="st0" d="M137.5,174.7h15.2c0.5,0,0.8-0.4,0.8-0.8v-28.7c0-0.5-0.4-0.8-0.8-0.8h-15.2c-0.5,0-0.8,0.4-0.8,0.8v28.7
		C136.6,174.3,137,174.7,137.5,174.7z M138.3,165.2h5.9v7.8h-5.9V165.2z M144.2,163.5h-5.9v-7.9h5.9V163.5z M145.9,155.6h5.9v7.9
		h-5.9V155.6z M145.9,173v-7.8h5.9v7.8H145.9z M151.9,153.9h-5.9V146h5.9V153.9z M144.2,146v7.8h-5.9V146H144.2z"/>
	<path class="st0" d="M133.5,127.9v-15.9c0-0.5-0.4-0.8-0.8-0.8h-15.2c-0.5,0-0.8,0.4-0.8,0.8v15.9c0,0.5,0.4,0.8,0.8,0.8h15.2
		C133.1,128.8,133.5,128.4,133.5,127.9z M131.8,119.2h-5.9v-6.3h5.9V119.2z M124.2,112.9v6.3h-5.9v-6.3H124.2z M118.2,120.8h5.9v6.3
		h-5.9V120.8z M125.8,127.1v-6.3h5.9v6.3H125.8z"/>
	<path class="st0" d="M105.3,165.1c-1.6,0-2.8,1.3-2.8,2.8c0,1.6,1.3,2.8,2.8,2.8c1.6,0,2.8-1.3,2.8-2.8
		C108.2,166.4,106.9,165.1,105.3,165.1z M105.3,169.1c-0.6,0-1.2-0.5-1.2-1.2c0-0.6,0.5-1.2,1.2-1.2c0.6,0,1.2,0.5,1.2,1.2
		C106.5,168.6,106,169.1,105.3,169.1z"/>
	<path class="st0" d="M86.3,85.6c2,1.6,4.1,3.2,4.5,6c0,0.2,0.1,0.4,0.3,0.6c0.1,0.1,0.3,0.2,0.5,0.2c0,0,0.1,0,0.1,0
		c0.3,0,7.8-1,9.8-5.3c0.9-1.9,0.5-4.1-1.1-6.5c-3.9-5.8-2.5-7.3,0.6-10.7c0.7-0.7,1.5-1.6,2.3-2.6c3.4-4.1,3.6-9.2,0.7-13.4
		c-3-4.4-8.4-6.5-12.7-5.1c-3.2,1-5.4,3.5-6.2,6.9c-1.1,4.3,0.2,9.2,3.1,12.3c0.7,0.8,1.1,1.4,1,1.9c-0.1,0.8-1,1.5-2.2,2.4
		c-1.7,1.3-3.9,3-4.6,5.9C81.5,81.8,83.9,83.7,86.3,85.6z M84,78.6c0.6-2.3,2.4-3.8,4-5c1.4-1.1,2.7-2.1,2.8-3.6
		c0.1-1-0.4-2-1.5-3.1c-2.5-2.7-3.6-7.1-2.7-10.7c0.7-2.8,2.5-4.8,5.1-5.7c0.7-0.2,1.5-0.3,2.3-0.3c3.1,0,6.5,1.8,8.6,4.8
		c1.2,1.7,3.6,6.4-0.6,11.4c-0.8,0.9-1.5,1.7-2.2,2.5c-3.2,3.4-5.4,5.8-0.8,12.7c1.3,1.9,1.6,3.5,1,4.9c-1.1,2.5-5.4,3.7-7.6,4.2
		c-0.7-3-3-4.7-5-6.3C84.9,82.3,83.4,81,84,78.6z"/>
</g>
</svg>
