<?xml version="1.0" encoding="utf-8"?>
<!-- Generator: Adobe Illustrator 22.1.0, SVG Export Plug-In . SVG Version: 6.00 Build 0)  -->
<svg version="1.1" id="Layer_1" xmlns="http://www.w3.org/2000/svg" xmlns:xlink="http://www.w3.org/1999/xlink" x="0px" y="0px"
	 viewBox="0 0 250 250" style="enable-background:new 0 0 250 250;" xml:space="preserve">
<style type="text/css">
	.st0{fill:#37B34A;}
</style>
<g>
	<path class="st0" d="M125,25C69.9,25,25,69.9,25,125s44.9,100,100,100c55.1,0,100-44.9,100-100S180.1,25,125,25z M125,223.3
		c-54.2,0-98.3-44.1-98.3-98.3S70.8,26.7,125,26.7c54.2,0,98.3,44.1,98.3,98.3S179.2,223.3,125,223.3z"/>
	<path class="st0" d="M164.7,99.9c-8.1,0-14.7,6.6-14.7,14.7c0,7.7,6,14.1,13.6,14.7v47.2c0,5.2-4.2,9.4-9.4,9.4
		c-5.2,0-9.4-4.2-9.4-9.4v-18.9c0-6.5-5.3-11.8-11.8-11.8s-11.8,5.3-11.8,11.8v18.9c0,5.2-4.2,9.4-9.4,9.4s-9.4-4.2-9.4-9.4v-36
		c6.5-0.3,12.5-2.8,17.3-7.2c5.4-5.1,8.5-12.3,8.5-19.7V77.4c0-4.4-3.3-8-7.6-8.5v-2.7c0-0.6-0.5-1.2-1.2-1.2
		c-0.6,0-1.2,0.5-1.2,1.2v7.5c0,0.6,0.5,1.2,1.2,1.2c0.6,0,1.2-0.5,1.2-1.2v-2.5c3,0.5,5.3,3.1,5.3,6.2v36.1c0,6.9-2.8,13.3-7.8,18
		c-5,4.7-11.6,7.1-18.5,6.6c-12.9-0.8-23-12-23-25.5V77.4c0-3.1,2.3-5.7,5.3-6.2v2.5c0,0.6,0.5,1.2,1.2,1.2s1.2-0.5,1.2-1.2v-7.5
		c0-0.6-0.5-1.2-1.2-1.2s-1.2,0.5-1.2,1.2v2.7C77.3,69.4,74,73,74,77.4v35.2c0,14.7,11.1,26.9,25.2,27.8c0.2,0,0.4,0,0.6,0v36
		c0,6.5,5.3,11.8,11.8,11.8s11.8-5.3,11.8-11.8v-18.9c0-5.2,4.2-9.4,9.4-9.4s9.4,4.2,9.4,9.4v18.9c0,6.5,5.3,11.8,11.8,11.8
		c6.5,0,11.8-5.3,11.8-11.8v-47.2c7.6-0.6,13.6-6.9,13.6-14.7C179.4,106.5,172.8,99.9,164.7,99.9z M164.7,127
		c-6.8,0-12.4-5.6-12.4-12.4c0-6.8,5.6-12.4,12.4-12.4c6.8,0,12.4,5.6,12.4,12.4C177,121.4,171.5,127,164.7,127z"/>
	<path class="st0" d="M164.7,111.3c-1.8,0-3.3,1.5-3.3,3.3c0,1.8,1.5,3.3,3.3,3.3c1.8,0,3.3-1.5,3.3-3.3
		C168,112.8,166.5,111.3,164.7,111.3z"/>
</g>
</svg>
