<?xml version="1.0" encoding="utf-8"?>
<!-- Generator: Adobe Illustrator 22.1.0, SVG Export Plug-In . SVG Version: 6.00 Build 0)  -->
<svg version="1.1" id="Layer_1" xmlns="http://www.w3.org/2000/svg" xmlns:xlink="http://www.w3.org/1999/xlink" x="0px" y="0px"
	 viewBox="0 0 250 250" style="enable-background:new 0 0 250 250;" xml:space="preserve">
<style type="text/css">
	.st0{fill:#37B34A;}
</style>
<path class="st0" d="M125,25C69.9,25,25,69.9,25,125s44.9,100,100,100s100-44.9,100-100S180.1,25,125,25z M125,69.3
	c5.9,21.5,7.5,37.4,0,81C117.5,107.3,119.2,90.7,125,69.3z M119.7,153.2c-2.9-2.9-6.8-7.2-11.4-13.6c-8.4-11.6-10.2-24.2-10.7-29.1
	c14.5,14.2,23.4,29.7,26.4,46.2C122.5,155.4,121.1,154.3,119.7,153.2z M122.6,159.7c-6.6,5.1-15.1,9.9-28.2,9.9c-0.1,0-0.2,0-0.3,0
	c1.3-1.5,4-4.1,9.4-6.6C109.6,160.2,118.5,159.7,122.6,159.7z M122,157.5c-4.9-0.8-14.5-2.8-23-6.4c-8.2-3.5-12.4-7.6-14.3-9.9
	c18.6,3.8,25,6.3,33.8,13.1C119.8,155.7,121,156.7,122,157.5z M130.8,153.2c-1.4,1.1-2.8,2.2-4.3,3.5c3-16.5,11.9-32,26.4-46.2
	c-0.4,4.9-2.3,17.4-10.7,29.1C137.6,146,133.7,150.3,130.8,153.2z M132.1,154.3c8.8-6.8,15.1-9.3,33.8-13.1
	c-1.9,2.2-6.2,6.4-14.3,9.9c-8.5,3.7-18,5.6-23,6.4C129.5,156.7,130.7,155.7,132.1,154.3z M146.5,163c5.3,2.5,8.1,5.1,9.4,6.6
	c-0.1,0-0.2,0-0.3,0c-13.1,0-21.6-4.7-28.2-9.9C131.5,159.7,140.4,160.2,146.5,163z M125.8,223.3v-62.7c6.9,5.4,15.8,10.6,29.7,10.6
	c0.6,0,1.3,0,2,0c0.3,0,0.6-0.2,0.7-0.4c0.1-0.3,0.2-0.6,0-0.8c-0.1-0.2-2.5-4.5-11-8.5c-4.1-1.9-9.4-2.8-13.8-3.2
	c5.3-1.1,12.3-2.9,18.8-5.7c12.4-5.4,16.2-12,16.4-12.3c0.2-0.3,0.1-0.6-0.1-0.9c-0.2-0.3-0.5-0.4-0.8-0.3
	c-15.7,3.1-23.1,5.2-30.4,9.5c1.9-2.2,4-4.9,6.3-8.1c11-15.2,11.1-31.5,11.1-32.1c0-0.3-0.2-0.6-0.5-0.8c-0.3-0.1-0.7-0.1-0.9,0.2
	c-12.7,12-21.4,25-25.9,38.8c6.7-40.4,5.4-56.4-1.5-80.7c-0.2-0.7-1.4-0.7-1.6,0c-6.7,23.7-8.2,40.2-2,77.9
	c-4.7-12.7-13.1-24.8-24.9-36c-0.2-0.2-0.6-0.3-0.9-0.2c-0.3,0.1-0.5,0.4-0.5,0.8c0,0.7,0.1,17,11.1,32.1c2.3,3.2,4.4,5.8,6.3,8.1
	c-7.2-4.4-14.7-6.4-30.4-9.5c-0.3-0.1-0.7,0.1-0.8,0.3c-0.2,0.3-0.2,0.6-0.1,0.9c0.2,0.3,3.9,6.9,16.4,12.3
	c6.4,2.8,13.4,4.6,18.6,5.6c-4.4,0.4-9.9,1.2-14.1,3.2c-8.6,4-10.9,8.3-11,8.5c-0.1,0.3-0.1,0.6,0,0.8c0.1,0.3,0.4,0.4,0.7,0.4
	c0.7,0,1.3,0,2,0c13.9,0,22.8-5.2,29.7-10.6v62.7c-53.8-0.5-97.5-44.4-97.5-98.3c0-54.2,44.1-98.3,98.3-98.3s98.3,44.1,98.3,98.3
	C223.3,178.9,179.7,222.8,125.8,223.3z"/>
</svg>
