<?xml version="1.0" encoding="utf-8"?>
<!-- Generator: Adobe Illustrator 21.1.0, SVG Export Plug-In . SVG Version: 6.00 Build 0)  -->
<svg version="1.1" id="Layer_1" xmlns="http://www.w3.org/2000/svg" xmlns:xlink="http://www.w3.org/1999/xlink" x="0px" y="0px"
	 viewBox="0 0 200 200" style="enable-background:new 0 0 200 200;" xml:space="preserve">
<style type="text/css">
	.st0{fill:#37B34A;}
</style>
<g>
	<path class="st0" d="M100,0C44.9,0,0,44.9,0,100s44.9,100,100,100s100-44.9,100-100S155.1,0,100,0z M100,1.7
		c54.2,0,98.3,44.1,98.3,98.3c0,23.7-8.4,45.5-22.4,62.5H141V120l1.5,2c1.3,1.8,3.9,2.2,5.7,0.9s2.2-3.9,0.9-5.7l-45.7-62.3
		c-0.8-1.1-2-1.7-3.3-1.7s-2.5,0.6-3.3,1.7L75.6,83.7v-9.5h1.7v-1.7h-2.5H59.9h-2.1v1.7h1.3V106l0,0L51,117.1
		c-1.3,1.8-0.9,4.4,0.9,5.7c0.7,0.5,1.6,0.8,2.4,0.8c1.3,0,2.5-0.6,3.3-1.7l1.5-2v42.5h-35c-14-17-22.4-38.8-22.4-62.5
		C1.7,45.8,45.8,1.7,100,1.7z M75.5,130.9l10.7-14.6L97,131.1v25.4H75.4L75.5,130.9L75.5,130.9z M74.7,158.1H98h3v4.4H71.7v-4.4
		H74.7z M101.8,156.4h-3v-23.1l2.8,3.9l1.4-1l-16.1-21.9c-0.3-0.4-1-0.4-1.4,0l-16.1,21.9l1.4,1l3-4v23.3h-3c-0.5,0-0.8,0.4-0.8,0.8
		v5.2h-9.2v-44.8L100,64.2l39.3,53.4v44.8h-36.6v-5.2C102.6,156.8,102.2,156.4,101.8,156.4z M73.8,86l-13.1,17.8V74.1h13.1V86z
		 M98,55.8c0.5-0.6,1.2-1,2-1s1.5,0.4,2,1l45.7,62.3c0.8,1.1,0.6,2.6-0.5,3.4c-1.1,0.8-2.6,0.6-3.4-0.5l-43.1-58.7
		c-0.3-0.4-1-0.4-1.4,0L56.2,121c-0.8,1-2.4,1.3-3.4,0.5c-1.1-0.8-1.3-2.3-0.5-3.4L98,55.8z M100,198.3c-29.7,0-56.4-13.3-74.4-34.2
		h34.3h10.9h31h38.3h34.3C156.4,185,129.7,198.3,100,198.3z"/>
	<path class="st0" d="M112.5,149.7h15.2c0.5,0,0.8-0.4,0.8-0.8v-28.7c0-0.5-0.4-0.8-0.8-0.8h-15.2c-0.5,0-0.8,0.4-0.8,0.8v28.7
		C111.6,149.3,112,149.7,112.5,149.7z M113.3,140.2h5.9v7.8h-5.9V140.2z M119.2,138.5h-5.9v-7.9h5.9V138.5z M120.9,130.6h5.9v7.9
		h-5.9V130.6z M120.9,148v-7.8h5.9v7.8H120.9z M126.9,128.9H121V121h5.9V128.9z M119.2,121v7.8h-5.9V121H119.2z"/>
	<path class="st0" d="M108.5,102.9V87c0-0.5-0.4-0.8-0.8-0.8H92.5c-0.5,0-0.8,0.4-0.8,0.8v15.9c0,0.5,0.4,0.8,0.8,0.8h15.2
		C108.1,103.8,108.5,103.4,108.5,102.9z M106.8,94.2h-5.9v-6.3h5.9V94.2z M99.2,87.9v6.3h-5.9v-6.3H99.2z M93.2,95.8h5.9v6.3h-5.9
		V95.8z M100.8,102.1v-6.3h5.9v6.3H100.8z"/>
	<path class="st0" d="M80.3,140.1c-1.6,0-2.8,1.3-2.8,2.8c0,1.6,1.3,2.8,2.8,2.8c1.6,0,2.8-1.3,2.8-2.8
		C83.2,141.4,81.9,140.1,80.3,140.1z M80.3,144.1c-0.6,0-1.2-0.5-1.2-1.2c0-0.6,0.5-1.2,1.2-1.2c0.6,0,1.2,0.5,1.2,1.2
		S81,144.1,80.3,144.1z"/>
	<path class="st0" d="M61.3,60.6c2,1.6,4.1,3.2,4.5,6c0,0.2,0.1,0.4,0.3,0.6c0.1,0.1,0.3,0.2,0.5,0.2h0.1c0.3,0,7.8-1,9.8-5.3
		c0.9-1.9,0.5-4.1-1.1-6.5c-3.9-5.8-2.5-7.3,0.6-10.7c0.7-0.7,1.5-1.6,2.3-2.6c3.4-4.1,3.6-9.2,0.7-13.4c-3-4.4-8.4-6.5-12.7-5.1
		c-3.2,1-5.4,3.5-6.2,6.9C59,35,60.3,39.9,63.2,43c0.7,0.8,1.1,1.4,1,1.9c-0.1,0.8-1,1.5-2.2,2.4c-1.7,1.3-3.9,3-4.6,5.9
		C56.5,56.8,58.9,58.7,61.3,60.6z M59,53.6c0.6-2.3,2.4-3.8,4-5c1.4-1.1,2.7-2.1,2.8-3.6c0.1-1-0.4-2-1.5-3.1
		c-2.5-2.7-3.6-7.1-2.7-10.7c0.7-2.8,2.5-4.8,5.1-5.7c0.7-0.2,1.5-0.3,2.3-0.3c3.1,0,6.5,1.8,8.6,4.8c1.2,1.7,3.6,6.4-0.6,11.4
		c-0.8,0.9-1.5,1.7-2.2,2.5c-3.2,3.4-5.4,5.8-0.8,12.7c1.3,1.9,1.6,3.5,1,4.9c-1.1,2.5-5.4,3.7-7.6,4.2c-0.7-3-3-4.7-5-6.3
		C59.9,57.3,58.4,56,59,53.6z"/>
</g>
</svg>
