<?xml version="1.0" encoding="utf-8"?>
<!-- Generator: Adobe Illustrator 21.1.0, SVG Export Plug-In . SVG Version: 6.00 Build 0)  -->
<svg version="1.1" id="Layer_1" xmlns="http://www.w3.org/2000/svg" xmlns:xlink="http://www.w3.org/1999/xlink" x="0px" y="0px"
	 viewBox="0 0 200 200" style="enable-background:new 0 0 200 200;" xml:space="preserve">
<style type="text/css">
	.st0{fill:#37B34A;}
</style>
<g>
	<path class="st0" d="M100,0C44.9,0,0,44.9,0,100s44.9,100,100,100s100-44.9,100-100S155.1,0,100,0z M100,198.3
		c-54.2,0-98.3-44.1-98.3-98.3S45.8,1.7,100,1.7s98.3,44.1,98.3,98.3S154.2,198.3,100,198.3z"/>
	<path class="st0" d="M139.7,74.9c-8.1,0-14.7,6.6-14.7,14.7c0,7.7,6,14.1,13.6,14.7v47.2c0,5.2-4.2,9.4-9.4,9.4s-9.4-4.2-9.4-9.4
		v-18.9c0-6.5-5.3-11.8-11.8-11.8s-11.8,5.3-11.8,11.8v18.9c0,5.2-4.2,9.4-9.4,9.4s-9.4-4.2-9.4-9.4v-36c6.5-0.3,12.5-2.8,17.3-7.2
		c5.4-5.1,8.5-12.3,8.5-19.7V52.4c0-4.4-3.3-8-7.6-8.5v-2.7c0-0.6-0.5-1.2-1.2-1.2c-0.6,0-1.2,0.5-1.2,1.2v7.5
		c0,0.6,0.5,1.2,1.2,1.2c0.6,0,1.2-0.5,1.2-1.2v-2.5c3,0.5,5.3,3.1,5.3,6.2v36.1c0,6.9-2.8,13.3-7.8,18s-11.6,7.1-18.5,6.6
		c-12.9-0.8-23-12-23-25.5V52.4c0-3.1,2.3-5.7,5.3-6.2v2.5c0,0.6,0.5,1.2,1.2,1.2s1.2-0.5,1.2-1.2v-7.5c0-0.6-0.5-1.2-1.2-1.2
		s-1.2,0.5-1.2,1.2v2.7C52.3,44.4,49,48,49,52.4v35.2c0,14.7,11.1,26.9,25.2,27.8c0.2,0,0.4,0,0.6,0v36c0,6.5,5.3,11.8,11.8,11.8
		s11.8-5.3,11.8-11.8v-18.9c0-5.2,4.2-9.4,9.4-9.4c5.2,0,9.4,4.2,9.4,9.4v18.9c0,6.5,5.3,11.8,11.8,11.8s11.8-5.3,11.8-11.8v-47.2
		c7.6-0.6,13.6-6.9,13.6-14.7C154.4,81.5,147.8,74.9,139.7,74.9z M139.7,102c-6.8,0-12.4-5.6-12.4-12.4s5.6-12.4,12.4-12.4
		c6.8,0,12.4,5.6,12.4,12.4C152,96.4,146.5,102,139.7,102z"/>
	<path class="st0" d="M139.7,86.3c-1.8,0-3.3,1.5-3.3,3.3s1.5,3.3,3.3,3.3s3.3-1.5,3.3-3.3S141.5,86.3,139.7,86.3z"/>
</g>
</svg>
